<?xml version="1.0" encoding="UTF-8"?>
<!DOCTYPE svg  PUBLIC '-//W3C//DTD SVG 1.1//EN'  'http://www.w3.org/Graphics/SVG/1.1/DTD/svg11.dtd'>
<svg width="550" height="462" xmlns="http://www.w3.org/2000/svg" xmlns:svg="http://www.w3.org/2000/svg" preserveAspectRatio="xMidYMid meet">
 <title>bee</title>
 <metadata>Created by potrace 1.15, written by Peter Selinger 2001-2017</metadata>
 <defs>
  <radialGradient id="svg_19" spreadMethod="pad" cx="0.506531" cy="0.542969">
   <stop stop-color="#ff7f00" offset="0.713562"/>
   <stop stop-color="#0080ff" offset="1"/>
  </radialGradient>
 </defs>
 <g display="inline">
  <title>Layer 1</title>
  <polygon stroke-width="5" points="523.6399159889816,223.99382425394015 401.0792183996791,431.59942626953125 155.95782322107425,431.59942626953125 33.397117614746094,223.99382425394015 155.95782322107425,16.388268267660635 401.0792183996791,16.388268267660635 523.6399159889816,223.99382425394015 " fill="url(#svg_19)" id="svg_16" fill-opacity="0.46"/>
  <path id="svg_11" d="m224.666667,301.333333c0,0 -11,20 -11,21c0,1 7,13 8,13c1,0 17,8 18,8c1,0 23,-1 23,-1c0,0 25,-4 27,-3c2,1 16,-12 16,-12c0,0 -2,-11 -1,-11c1,0 9,-3 10,-5c1,-2 10,-5 11,-5c1,0 -6,-6 -8,-6" stroke-width="5" fill="#f9e2cd"/>
  <path fill="#f4cd2e" stroke-width="5" stroke-dasharray="null" stroke-linejoin="null" stroke-linecap="null" d="m239.333333,214c0,0 -5.333333,4 -5.333333,4c0,0 4.666667,2.666667 4.666667,2.666667c0,0 -4.666667,6 -4.666667,5.333333c0,-0.666667 11.333333,0.666667 11.333333,0.666667c0,0 1.333333,16 1.333333,15.333333c0,-0.666667 10.666667,5.333333 10.666667,5.333333c0,0 6.666667,7.333333 6.666667,7.333333c0,0 2.666667,2.666667 4.666667,2c2,-0.666667 8.666667,-3.333333 12.666667,-6.666667c4,-3.333333 10,-6 12,-8.666667c2,-2.666667 8,-18 8,-18c0,0 -0.666667,-18.666667 -0.666667,-19.333333c0,-0.666667 12.666667,2 12.666667,1.333333c0,-0.666667 2,-5.333333 -1.333333,-5.333333c-3.333333,0 -6,-3.333333 -13.333333,-2.666667c-7.333333,0.666667 -17.333333,-4.666667 -19.333333,-4.666667c-2,0 -12,0 -12.666667,0c-0.666667,0 -16,-2.666667 -18,-2.666667c-2,0 -12,1.333333 -10.666667,4.666667c1.333333,3.333333 -3.333333,12 -2,12.666667" id="svg_14"/>
  <path fill="#bfbfbf" stroke-width="2" stroke-dasharray="null" stroke-linejoin="null" stroke-linecap="null" d="m216.666667,178c0,0 -21.333333,-7.333333 -21.333333,-7.333333c0,0 -27.333333,-7.333333 -27.333333,-8c0,-0.666667 -34.666667,-10.666667 -35.333333,-10.666667c-0.666667,0 -34.666667,-9.333333 -34.666667,-9.333333c0,0 -29.333333,-3.333333 -29.333333,-3.333333c0,0 -26,1.333333 -26,1.333333c0,0 -10,6 -10,6c0,0 -7.333333,3.333333 -8,3.333333c-0.666667,0 -2,8.666667 -2,8.666667c0,0 2.666667,10.666667 2,10c-0.666667,-0.666667 6,11.333333 6,11.333333c0,0 10,9.333333 9.333333,10c-0.666667,0.666667 15.333333,11.333333 15.333333,11.333333c0,0 16.666667,10 16.666667,10c0,0 14.666667,6.666667 15.333333,6c0.666667,-0.666667 4,2 6,2c2,0 6.666667,-0.666667 7.333333,0c0.666667,0.666667 -4.666667,4.666667 -4.666667,4.666667c0,0 -6,7.333333 -5.333333,7.333333c0.666667,0 2.666667,6.666667 2,6.666667c-0.666667,0 4,6 6,6c2,0 13.333333,4.666667 13.333333,4c0,-0.666667 6,4.666667 6,4.666667c0,0 12.666667,0.666667 12.666667,0.666667c0,0 12,2.666667 12,2.666667c0,0 9.333333,-2 9.333333,-2c0,0 18.666667,-23.333333 19.333333,-23.333333c0.666667,0 1.333333,6.666667 2,6.666667c0.666667,0 3.333333,10 0,11.333333c-3.333333,1.333333 -9.333333,5.333333 -8.666667,5.333333c0.666667,0 19.333333,-1.333333 20,-1.333333c0.666667,0 20,-7.333333 20,-7.333333c0,0 13.333333,-15.333333 13.333333,-15.333333c0,0 9.333333,-19.333333 9.333333,-19.333333c0,0 10,-3.333333 10,-3.333333c0,0 -20.666667,-29.333333 -20.666667,-29.333333l0.000002,-0.000003z" id="svg_10"/>
  <path fill="#bfbfbf" stroke-width="2" stroke-dasharray="null" stroke-linejoin="null" stroke-linecap="null" d="m318,180c4,0 32,-5 32,-5c0,0 19,-1 19,-2c0,-1 18,-9 18,-9c0,0 32,-13 32,-13c0,0 38,-10 38,-10c0,0 29,1 29,1c0,0 14,1 14,2c0,1 12,8 12,9c0,1 3,12 3,12c0,0 -4,11 -5,11c-1,0 -8,12 -8,12c0,0 -13,12 -13,12c0,0 -14,8 -14,8c0,0 -14,11 -15,10c-1,-1 -18,4 -18,4c0,0 -10,0 -10,0c0,0 10,8 10,8c0,0 4,5 2,9c-2,4 -6,7 -6,7c0,0 -10,5 -10,5c0,0 -12,4 -12,4c0,0 -16,4 -16,4c0,0 -18,0 -18,0c0,0 -15,-3 -15,-3c0,0 -23,-2 -23,-2c0,0 -11,-9 -11,-9c0,0 -7,-12 -7,-12c0,0 -4,-12 -2,-11c2,1 21,12 21,12c0,0 18,10 18,10c0,0 11,-1 11,-1" id="svg_9"/>
  <g id="svg_1" fill="#000000" transform="translate(0,462) scale(0.10000000149011612,-0.10000000149011612) ">
   <path id="svg_2" d="m2296.333333,4212c-29,-14 -53,-30 -53,-36c0,-6 5,-5 12,2c7,7 25,12 40,12c16,0 31,7 34,15c16,40 44,-9 56,-99c5,-39 12,-84 14,-100c7,-50 -5,-23 -32,70c-14,49 -29,93 -34,97c-4,5 3,-31 16,-80c13,-48 24,-101 24,-118c0,-16 2,-43 4,-60c1,-16 4,-37 4,-45c2,-10 5,-11 13,-3c9,9 9,20 0,43c-12,37 -6,56 13,41c14,-12 19,-131 6,-131c-5,0 -10,5 -12,11c-8,24 -38,-4 -38,-35c0,-24 -8,-38 -30,-54c-25,-19 -30,-30 -30,-63c0,-22 -4,-38 -9,-35c-5,3 -11,-7 -14,-22c-3,-15 -9,-40 -13,-55c-4,-16 -1,-46 6,-68c13,-39 23,-48 35,-29c10,16 45,12 45,-5c0,-11 11,-15 39,-15c22,0 43,-5 46,-10c4,-6 15,-8 25,-5c11,4 20,-1 24,-12c8,-19 -8,-35 -62,-65c-40,-21 -61,-85 -44,-131c10,-27 9,-34 -9,-53c-12,-12 -19,-30 -16,-41c4,-16 5,-16 6,2c1,11 16,36 35,56c18,20 36,45 40,54c3,9 12,15 20,12c7,-3 30,10 51,29c29,26 41,31 48,22c5,-8 7,1 3,25c-4,29 -1,37 10,37c12,0 14,-7 10,-27c-7,-31 2,-48 24,-48c25,0 49,32 53,72c3,33 4,31 5,-13c3,-69 12,-115 23,-108c5,3 6,17 3,31c-6,24 -5,25 20,19c28,-7 33,3 15,35c-5,11 -14,17 -18,14c-5,-2 -11,4 -14,15c-3,11 -1,23 4,26c5,3 9,-1 9,-8c1,-8 6,-7 14,5c14,18 14,18 19,0c3,-10 9,-42 12,-71c4,-28 11,-50 16,-47c4,3 6,11 3,18c-7,19 81,21 96,2c7,-8 16,-12 21,-9c5,3 9,-5 9,-17c0,-17 3,-19 14,-10c11,9 17,8 28,-2c7,-7 19,-12 26,-9c7,2 12,-5 12,-17c0,-29 18,-26 26,4c16,62 -35,155 -84,155c-30,0 -52,11 -52,25c0,20 21,32 68,38c38,5 44,3 52,-18c5,-13 14,-26 19,-30c6,-3 11,-20 11,-36c0,-16 6,-32 13,-35c7,-2 13,-20 13,-39c0,-19 7,-42 17,-52c19,-22 36,-110 19,-99c-18,11 -22,-10 -7,-30c8,-11 14,-14 15,-6c0,6 5,12 11,12c6,0 8,-9 4,-21c-5,-13 -3,-19 3,-15c5,3 12,-1 16,-9c3,-8 17,-20 31,-27c16,-7 29,-24 35,-49c13,-49 0,-85 -24,-62c-3,4 -15,8 -26,10c-15,2 -20,-3 -21,-20l0,-22l-16,23l-16,23l-13,-38c-18,-49 -17,-58 1,-43c12,10 15,10 15,-3c0,-24 -31,-30 -37,-7c-3,11 -9,20 -14,20c-5,0 -9,9 -9,20c0,13 -5,18 -15,14c-12,-5 -13,-2 -6,17c4,13 5,31 0,39c-4,8 -11,24 -14,35c-4,12 -9,15 -12,8c-2,-7 0,-20 6,-30c21,-41 -37,-69 -71,-35c-7,7 -20,12 -29,12c-16,0 -17,4 -7,31c6,16 8,32 5,35c-3,3 -8,-5 -12,-17c-12,-38 -27,-48 -55,-37c-16,6 -26,6 -28,-1c-10,-30 -22,-5 -23,47c-1,63 -4,61 -14,-11c-3,-26 -10,-45 -15,-42c-5,3 -6,22 -3,42c5,26 3,35 -7,31c-16,-5 -24,-94 -10,-103c12,-7 4,-25 -11,-25c-5,0 -9,16 -9,36c0,31 -3,35 -20,29c-15,-5 -21,0 -26,19c-12,51 -21,25 -16,-53c3,-55 1,-81 -8,-86c-9,-6 -10,8 -5,56c5,50 3,68 -9,84c-15,19 -15,19 -16,-7c0,-15 -4,-30 -10,-33c-5,-3 -10,1 -10,10c0,10 -7,15 -17,13c-14,-3 -17,-12 -15,-38c2,-27 0,-31 -7,-20c-6,8 -11,25 -11,37c0,25 -15,39 -25,22c-4,-5 -13,-8 -21,-5c-9,4 -14,-2 -14,-16c0,-25 -27,-47 -57,-48c-13,0 -24,-8 -28,-20c-3,-11 -11,-20 -18,-20c-6,0 -22,-10 -35,-22c-16,-15 -26,-19 -29,-11c-2,7 -11,9 -19,6c-17,-6 -54,24 -54,44c0,7 -4,13 -9,13c-6,0 -16,12 -23,27c-7,14 -18,28 -24,30c-16,5 -37,-47 -24,-62c30,-36 -17,-28 -365,63c-55,14 -143,41 -195,60c-52,19 -151,51 -220,72c-69,21 -174,54 -235,74c-189,62 -406,88 -619,75c-99,-6 -125,-11 -172,-35c-70,-35 -99,-70 -120,-141c-15,-52 -15,-60 1,-119c22,-81 100,-176 216,-262c46,-35 109,-82 139,-106c99,-77 219,-134 300,-141c46,-4 110,-17 110,-22c0,-2 -15,-19 -34,-36c-44,-42 -56,-102 -30,-147c16,-27 45,-46 144,-96c58,-30 209,-65 290,-69l85,-3l-65,9c-119,18 -244,52 -320,87c-92,42 -107,55 -120,103c-9,32 -7,45 10,79c25,50 64,68 229,106c92,21 125,33 129,46c9,34 114,68 367,117c88,17 205,40 260,51c55,11 116,21 135,23c19,2 43,7 53,12c10,4 17,3 17,-3c0,-12 -78,-44 -90,-37c-5,3 -17,2 -27,-3c-20,-10 -120,-45 -196,-69c-37,-11 -47,-18 -43,-30c5,-12 1,-14 -19,-9c-15,4 -77,-2 -138,-13c-62,-11 -154,-23 -206,-25c-86,-4 -111,-10 -100,-20c2,-2 67,-1 144,3c77,4 142,6 144,4c22,-16 -198,-133 -261,-139c-110,-10 -144,-15 -157,-23c-22,-14 3,-21 40,-11c19,5 61,10 94,12c50,3 60,0 63,-14c2,-10 -1,-18 -6,-18c-16,0 -164,-82 -158,-87c2,-3 47,15 98,39c82,40 104,46 186,51c50,4 92,3 92,-1c0,-4 -15,-17 -33,-30c-48,-33 -177,-157 -142,-136c16,10 68,50 115,89c92,77 107,86 247,135l92,32l33,-19c48,-28 46,-45 -11,-82c-28,-17 -54,-37 -58,-44c-4,-7 6,-3 22,7c17,11 55,34 85,52c30,17 109,63 176,101c149,87 188,101 124,47c-24,-22 -49,-39 -54,-39c-6,0 -12,-9 -15,-20c-7,-39 -86,-161 -136,-208c-70,-68 -93,-78 -214,-88c-58,-5 -118,-12 -133,-15c-29,-6 -36,4 -17,23c6,6 9,17 6,25c-3,8 -10,2 -18,-17c-20,-44 -57,-65 -44,-25c3,11 2,20 -4,20c-5,0 -13,-9 -16,-20c-3,-11 -13,-20 -21,-20c-21,0 -17,14 11,40c14,13 25,30 25,37c0,8 5,11 10,8c6,-3 14,4 19,17c7,17 10,19 10,6c1,-26 20,-22 31,6c5,13 14,27 21,32c9,5 10,2 5,-12c-16,-38 -18,-54 -7,-54c6,0 11,7 11,15c0,8 13,28 30,45c28,29 41,58 20,45c-5,-3 -10,-3 -10,0c0,12 21,45 28,45c15,0 4,-81 -14,-101c-29,-32 -10,-31 21,1c26,27 41,80 23,80c-4,0 -5,7 -2,15c4,8 1,15 -5,15c-6,0 -8,8 -5,18c6,19 -29,-16 -58,-58l-17,-25l0,39c-1,33 -3,37 -16,26c-8,-7 -15,-18 -15,-26c0,-16 -49,-73 -50,-57c0,6 9,29 21,50l21,38l-40,-44c-33,-37 -40,-50 -35,-73c5,-24 2,-28 -16,-28c-11,0 -21,-4 -21,-9c0,-5 -9,-12 -19,-16c-10,-3 -29,-21 -42,-40c-16,-22 -32,-35 -46,-35c-16,0 -23,-6 -23,-19c0,-11 -17,-33 -37,-50c-29,-24 -38,-39 -38,-62c0,-28 -5,-33 -45,-49c-24,-9 -46,-22 -48,-29c-2,-6 -14,-11 -27,-11c-13,0 -30,-7 -39,-15c-8,-8 -19,-15 -24,-15c-5,0 -23,-7 -38,-15c-16,-8 -44,-15 -63,-15c-34,0 -34,0 -28,40c3,22 2,40 -3,40c-11,0 -19,-25 -26,-83c-6,-48 -4,-54 22,-80c37,-37 61,-50 69,-37c3,6 -1,13 -9,16c-9,3 -16,12 -16,20c0,19 58,47 85,40c14,-4 28,0 35,9c7,8 21,15 31,15c11,0 27,9 36,20c10,11 26,20 36,20c10,0 43,20 72,45c51,44 53,45 59,23l7,-23l11,23c15,31 28,27 28,-9c0,-39 16,-29 24,15c4,19 13,40 22,46c8,7 31,39 51,71c20,33 43,59 52,59c9,0 75,6 147,14c145,15 182,29 251,94c24,22 47,42 51,44c5,1 22,23 38,47c41,62 42,64 49,86c6,19 7,19 17,2c10,-18 11,-18 29,2c10,11 19,24 19,29c0,5 7,16 16,23c15,12 16,11 10,-9c-5,-13 -3,-29 4,-37c12,-15 -2,-55 -20,-55c-13,0 -13,6 2,30c22,35 0,33 -32,-4c-18,-20 -36,-34 -40,-31c-4,3 -10,-4 -13,-15c-3,-10 -1,-20 4,-22c11,-4 -6,-77 -21,-92c-10,-8 -11,-2 -6,27c8,45 -5,43 -28,-5c-18,-35 -21,-51 -6,-28c7,11 10,7 10,-17c0,-17 5,-35 10,-38c20,-12 9,-26 -32,-44c-48,-21 -66,-38 -98,-96c-57,-103 -91,-180 -129,-295c-55,-167 -59,-179 -67,-225c-3,-22 -11,-45 -16,-52c-7,-8 -5,-18 6,-28c22,-23 20,-36 -14,-83c-31,-44 -61,-107 -54,-115c3,-3 -4,-22 -15,-43c-11,-22 -27,-64 -35,-94c-8,-30 -17,-63 -21,-72c-5,-13 -2,-18 9,-18c22,0 20,-8 -9,-46c-14,-18 -25,-45 -25,-61c0,-16 -9,-36 -20,-46c-11,-9 -20,-28 -20,-41c0,-14 -5,-28 -10,-31c-6,-4 -8,-15 -5,-25c3,-11 -4,-33 -19,-55c-14,-20 -28,-45 -31,-56c-10,-29 -22,-23 -29,16c-8,42 -26,46 -26,6c0,-80 42,-114 125,-105c34,4 54,11 52,18c-2,6 -16,9 -32,8c-26,-4 -27,-2 -21,25c18,79 33,116 48,124c10,5 18,20 18,33c0,13 7,29 15,36c8,7 15,28 15,47c0,27 4,33 18,31c14,-3 17,6 20,55c2,38 7,57 15,56c29,-3 36,4 57,58c13,32 29,72 36,88c19,44 54,181 54,210c0,30 15,32 32,5c16,-26 32,-26 25,0c-3,11 -1,22 3,25c5,3 11,-9 13,-27c2,-22 5,-12 7,27c2,54 3,57 10,25c7,-31 8,-28 9,24c1,47 4,57 16,52c12,-4 15,3 15,32c0,21 11,60 24,88c13,27 27,64 31,82c7,32 45,66 45,40c0,-7 9,-2 20,12l20,25l0,-32l0,-32l25,23c29,27 25,61 -7,53c-28,-8 -61,29 -54,58c3,13 2,25 -4,27c-5,2 -12,35 -14,73c-3,39 -3,61 0,50c17,-72 39,-135 47,-135c5,0 6,10 3,23c-24,80 -15,111 17,65c16,-22 16,-22 17,22c0,25 4,51 9,59c6,10 5,22 -5,35c-19,28 -18,34 11,34c27,0 32,-16 15,-48c-6,-12 -6,-27 -1,-42l10,-23l0,23c1,38 18,61 41,55c17,-5 20,0 20,26c0,19 4,30 10,26c6,-3 10,3 10,13c0,15 6,20 25,18c19,-1 25,-7 26,-26c1,-21 2,-22 6,-5c3,11 12,29 19,40c11,16 14,16 14,3c0,-8 7,-21 15,-28c12,-10 15,-10 15,4c0,9 4,16 10,16c5,0 7,-21 3,-50c-5,-47 -4,-50 16,-50c26,0 49,20 44,37c-4,10 -9,10 -23,1c-11,-7 -21,-10 -24,-8c-6,7 17,80 26,80c4,0 5,-6 2,-13c-3,-8 2,-20 11,-27c13,-11 15,-8 15,16c0,21 3,25 9,15c5,-7 14,-10 21,-6c8,5 11,-2 10,-26c-3,-60 0,-79 13,-79c7,0 20,-17 29,-38c13,-29 17,-32 17,-14c1,12 5,22 10,22c17,0 23,-40 16,-96c-4,-36 -3,-54 4,-54c6,0 11,-7 11,-15c0,-8 -4,-15 -10,-15c-5,0 -10,-7 -10,-16c0,-8 4,-13 9,-9c6,3 13,-10 17,-30c5,-28 9,-33 19,-25c10,8 14,7 17,-6c1,-9 4,20 4,64c1,46 -3,79 -8,76c-4,-3 -8,-11 -7,-17c3,-28 -2,-48 -11,-42c-6,3 -7,17 -4,31c3,13 2,24 -2,24c-5,0 -9,29 -9,65c0,60 2,66 23,72c12,3 22,12 22,21c0,33 21,-6 29,-54l9,-49l1,42c1,32 5,43 21,48c16,5 20,15 20,51c0,31 4,43 11,38c8,-5 10,-37 6,-107c-4,-60 -3,-97 3,-91c5,5 10,32 12,59c3,49 4,50 36,50c30,0 32,-2 31,-35c0,-19 -3,-29 -6,-22c-8,21 -23,2 -23,-32c0,-38 -15,-56 -46,-56c-16,0 -24,-7 -26,-22c-4,-20 -6,-18 -16,12l-12,35l4,-35c1,-19 7,-43 11,-54c6,-14 5,-18 -6,-14c-8,2 -15,15 -17,29c-1,13 -6,35 -9,49c-5,21 -8,16 -14,-25c-14,-93 -11,-122 11,-128c15,-4 20,0 20,14c0,10 5,19 10,19c6,0 10,-4 10,-10c0,-5 5,-10 10,-10c6,0 10,11 10,24c0,27 25,92 35,89c8,-3 35,-30 35,-36c0,-3 -11,-8 -25,-11c-22,-6 -25,-12 -24,-49c1,-35 2,-38 9,-17c6,22 8,23 15,7c7,-17 9,-17 25,-2c17,15 19,15 23,-2c3,-10 5,-1 6,20c0,20 -3,37 -9,37c-5,0 -10,-5 -10,-12c0,-6 -2,-9 -5,-6c-12,12 8,56 27,61c18,5 19,2 14,-27c-4,-18 -2,-44 3,-57l10,-24l0,23c1,13 5,21 10,17c18,-11 23,17 5,30c-15,10 -16,17 -7,36l12,24l0,-24c1,-21 3,-22 18,-10c9,8 18,13 20,12c1,-2 10,-3 18,-3c22,0 18,20 -10,46c-14,13 -25,18 -25,13c0,-6 -4,-7 -10,-4c-5,3 -10,25 -10,48c0,28 -3,37 -9,28c-7,-11 -9,-11 -14,0c-4,10 -6,10 -6,2c-1,-7 -6,-13 -11,-13c-7,0 -10,19 -9,45c2,34 -2,50 -19,68c-19,21 -21,29 -13,63c7,30 9,33 10,13c1,-37 10,-41 35,-14c21,23 22,23 34,4c12,-19 6,-24 -20,-20c-5,0 -8,-3 -8,-9c0,-16 37,-12 44,5c3,8 1,26 -4,40c-5,14 -7,25 -5,25c11,0 44,-40 50,-61c7,-20 8,-21 17,-5c5,9 7,24 4,32c-3,9 -1,12 4,9c6,-3 10,-20 10,-37c0,-22 4,-29 14,-25c8,3 17,1 20,-6c2,-7 8,-2 11,11c10,30 23,28 43,-8c9,-16 20,-30 25,-30c4,0 7,-7 7,-15c0,-8 -6,-12 -14,-9c-24,9 -28,-14 -6,-36l21,-21l-22,-31c-15,-20 -17,-29 -8,-26c8,2 18,14 24,26c17,39 55,40 55,1c0,-10 5,-19 10,-19c6,0 10,-8 10,-19c0,-10 10,-25 22,-33c15,-10 19,-20 14,-33c-6,-17 -7,-17 -25,2c-10,11 -22,34 -25,51c-11,47 -30,58 -50,28c-20,-31 -20,-40 -1,-32c8,3 15,2 15,-3c0,-5 -7,-14 -15,-21c-18,-15 -20,-43 -2,-37c6,2 11,12 11,21c-1,9 0,16 3,16c8,0 33,-28 33,-38c0,-5 10,-17 23,-25l22,-16l-22,0c-14,-1 -23,5 -23,14c0,12 -4,14 -19,5c-11,-5 -22,-6 -25,-1c-3,4 -17,6 -31,3c-29,-5 -22,-19 13,-24c26,-4 30,-23 4,-24c-37,-2 -45,-4 -39,-10c3,-4 1,-16 -4,-27c-9,-16 -13,-17 -21,-6c-7,11 -9,11 -6,1c2,-8 7,-13 11,-13c4,1 14,1 22,1c9,0 15,9 15,22c0,20 1,20 18,5c10,-9 27,-14 37,-12c15,4 26,-5 45,-35l24,-40l14,25c12,23 11,30 -7,61c-20,34 -16,45 8,22c11,-11 13,-8 9,15c-3,15 -1,27 3,27c9,0 13,-22 9,-49c-1,-8 4,-17 10,-21c9,-6 9,-13 1,-29c-7,-12 -9,-26 -6,-31c3,-6 3,-15 -1,-22c-5,-8 -10,-6 -16,8c-4,11 -6,-1 -2,-31l5,-50l-20,35c-11,19 -25,45 -32,57c-14,26 -36,33 -66,19c-28,-12 -29,-20 -2,-58c12,-16 19,-32 15,-35c-11,-12 -31,16 -46,64c-13,42 -15,45 -18,20c-4,-34 -15,-34 -38,0c-9,15 -19,22 -21,16c-3,-7 3,-23 13,-37c9,-14 12,-26 6,-26c-5,0 -12,6 -15,14c-3,7 -14,15 -24,18c-16,4 -19,-2 -21,-48c-1,-29 2,-55 8,-59c5,-3 10,-24 10,-46c0,-21 3,-39 8,-39c4,0 7,-23 8,-50c0,-28 -3,-50 -8,-50c-8,0 -11,14 -9,42c1,9 -3,19 -9,23c-6,3 -10,-3 -10,-16c0,-29 -17,-13 -23,21c-3,18 -5,14 -6,-14c-1,-30 4,-42 24,-58c14,-11 25,-26 25,-34c0,-8 5,-12 10,-9c12,7 12,-22 0,-50c-8,-18 -9,-17 -9,7c-1,40 -33,90 -53,84c-10,-2 -21,0 -24,5c-3,5 0,9 5,9c6,0 11,9 11,20c0,34 -17,22 -25,-16c-6,-35 -1,-46 27,-56c4,-2 5,-13 2,-25c-8,-29 -34,-19 -34,13c0,36 -18,29 -23,-8c-2,-18 -3,-12 -1,15c4,67 -10,58 -25,-15c-18,-87 -19,-89 -20,-38c-1,47 -21,96 -21,53c0,-33 -20,-28 -21,5c-2,23 -2,24 -6,5c-5,-25 -18,-30 -26,-10c-4,9 -6,9 -6,0c-1,-7 -6,-13 -12,-13c-7,0 -9,9 -6,21c3,12 1,19 -6,16c-6,-2 -17,-23 -23,-48c-13,-48 -17,-44 -14,14c1,33 -6,43 -26,35c-4,-2 -11,8 -16,22c-10,24 -10,24 -18,5c-4,-12 -14,-26 -23,-33c-12,-10 -16,-9 -21,10c-5,19 -8,21 -16,8c-9,-13 -11,-13 -20,0c-8,12 -10,11 -10,-7c0,-24 20,-74 33,-84c4,-3 9,-38 10,-77c3,-99 17,-103 17,-4c0,48 4,82 10,82c6,0 10,14 10,31c0,20 4,28 11,23c7,-4 10,-25 7,-53c-3,-25 -2,-59 2,-76c6,-22 8,-12 9,40c2,84 20,71 22,-15c1,-46 3,-50 9,-25l8,30l1,-30c1,-16 4,-40 7,-53c4,-12 2,-22 -4,-22c-6,0 -12,8 -14,17c-2,10 -6,13 -10,8c-3,-6 2,-26 11,-46c15,-30 16,-41 6,-59c-12,-22 -12,-21 -18,13c-7,43 -48,159 -54,153c-3,-2 0,-21 6,-42c11,-39 5,-88 -9,-79c-5,3 -13,-2 -18,-11c-8,-14 -10,-13 -15,7c-3,13 -9,59 -13,102c-4,43 -11,80 -15,83c-5,3 -9,16 -9,28c0,13 -8,30 -17,37c-15,12 -16,12 -11,-6c33,-109 65,-292 53,-303c-7,-7 -11,13 -30,139c-9,64 -21,122 -25,130c-16,25 -22,2 -10,-38c27,-88 51,-293 30,-263c-5,8 -10,32 -10,52c0,20 -6,63 -14,95c-8,32 -20,92 -27,133c-7,41 -15,65 -17,53c-4,-29 -17,-29 -36,-2c-14,21 -15,21 -18,-12l-4,-34l-11,25c-8,17 -12,20 -12,8c-1,-9 -6,-20 -12,-24c-8,-5 -10,9 -6,47l6,54l-11,-47c-6,-28 -16,-48 -23,-48c-7,0 -16,-6 -18,-12c-3,-7 -6,-3 -6,10c-1,13 -5,20 -11,17c-6,-4 -10,-55 -9,-123c1,-84 3,-106 9,-77c4,21 6,57 4,80c-3,30 -2,35 5,20c9,-18 10,-18 10,7c1,15 5,30 11,33c14,9 0,-177 -15,-191c-8,-9 -15,-9 -26,0c-17,12 -31,54 -21,60c6,4 7,109 3,186l-2,25l-14,-25c-12,-22 -14,-23 -20,-8c-4,10 -12,15 -18,11c-10,-6 -7,13 8,50c4,9 3,17 -2,17c-11,0 -29,-50 -37,-105c-5,-31 -4,-37 4,-25c9,11 10,4 6,-32c-5,-40 -3,-48 11,-48c13,0 15,-8 10,-41c-3,-22 -2,-53 3,-67c15,-50 21,-97 10,-86c-5,5 -18,50 -28,99c-12,56 -21,82 -25,71c-4,-10 -7,-27 -7,-37c0,-11 -4,-17 -10,-14c-5,3 -10,24 -10,46c0,22 -5,39 -11,39c-8,0 -10,16 -6,52c7,54 27,91 27,49c0,-12 4,-19 10,-16c6,3 10,24 10,46c0,24 -4,38 -10,34c-6,-4 -11,6 -11,22c-1,15 -3,21 -6,12c-5,-20 -45,-33 -54,-17c-4,7 -8,6 -12,-3c-4,-11 -6,-10 -6,2c-1,8 6,24 14,35c8,10 15,34 15,53c0,28 -2,32 -15,21c-10,-8 -13,-21 -8,-37c4,-19 2,-24 -8,-21c-16,5 -18,78 -6,223c10,111 -7,96 -23,-21c-21,-152 -23,-180 -9,-205c7,-13 16,-44 20,-69c13,-88 28,-146 48,-187c12,-23 21,-50 21,-59c0,-16 29,-60 88,-134c12,-15 22,-33 22,-39c0,-6 5,-11 11,-11c7,0 9,10 7,25c-3,14 -2,25 2,25c4,0 10,-18 14,-40c3,-22 12,-40 19,-40c6,0 30,-20 52,-45c22,-25 45,-45 52,-45c7,0 13,-4 13,-10c0,-5 6,-7 14,-4c7,3 16,-2 19,-10c4,-9 13,-13 22,-10c10,4 15,0 15,-10c0,-18 16,-21 26,-5c5,8 10,6 16,-6c7,-11 17,-15 33,-11c18,5 29,-1 49,-26c22,-28 28,-31 44,-22c12,8 24,9 35,2c13,-7 19,-4 26,16c6,13 19,27 30,31c12,3 21,10 21,15c0,4 12,10 28,13c93,19 125,30 129,48c3,10 9,19 14,19c5,0 9,7 9,15c0,8 9,15 20,15c11,0 20,6 20,13c0,7 15,31 33,53c88,105 138,177 144,207c3,17 16,50 29,72c16,30 22,57 22,99c-1,43 4,61 15,67c9,6 13,17 10,30c-3,12 0,25 7,29c8,5 13,42 15,109c3,94 13,131 35,131c4,0 11,-17 15,-37c10,-55 41,-122 67,-143c30,-25 36,-25 40,2c4,28 42,37 52,13c3,-9 2,-13 -4,-10c-16,10 0,-71 31,-157c44,-119 59,-168 51,-168c-12,0 -91,212 -98,263c-4,26 -11,50 -17,54c-19,12 2,-120 31,-197c58,-151 84,-210 93,-210c13,0 39,-56 39,-85c0,-18 6,-29 20,-32c16,-4 20,-14 20,-43c0,-24 5,-40 14,-43c8,-3 16,-21 18,-39c2,-25 7,-33 21,-31c14,1 26,-16 48,-64c16,-36 29,-76 29,-89c0,-20 -5,-24 -32,-24c-23,0 -29,-3 -21,-11c7,-7 29,-9 62,-4c43,6 55,13 81,45c21,26 30,49 30,74c0,44 -15,48 -23,6c-4,-16 -11,-30 -17,-30c-13,0 -79,101 -85,130c-3,13 -11,28 -19,32c-8,4 -12,16 -9,26c2,11 -6,32 -21,49c-14,17 -26,37 -26,44c0,8 -13,27 -30,42c-16,16 -30,35 -30,43c0,11 5,10 22,-6c29,-27 40,-25 28,6c-15,39 -12,42 15,9c27,-33 34,-18 9,20c-8,13 -22,21 -29,19c-10,-4 -16,6 -20,33c-11,65 -26,107 -51,140c-13,17 -24,43 -24,56c0,14 -4,27 -8,29c-25,10 -55,88 -58,150c-2,37 -10,87 -18,110c-8,24 -17,58 -21,77c-4,19 -20,63 -36,99c-16,35 -27,67 -24,72c3,4 -2,13 -10,20c-8,7 -15,18 -15,25c0,6 -18,38 -41,70c-24,34 -34,55 -24,51c13,-5 12,0 -4,20c-12,15 -21,32 -21,39c0,7 -20,31 -45,54c-46,42 -57,74 -30,84c12,5 12,14 -5,62c-10,30 -15,55 -9,55c5,0 9,-6 9,-14c0,-21 123,-137 182,-170c46,-27 61,-30 174,-35l123,-6l36,-35c20,-19 55,-61 78,-92c23,-32 44,-53 45,-47c2,5 -2,17 -8,27c-7,9 6,-2 29,-25c38,-39 45,-42 80,-38c35,4 42,1 67,-27c15,-18 33,-32 39,-30c7,1 18,-5 25,-13c7,-8 20,-15 30,-15c10,0 23,-7 30,-15c17,-20 30,-19 31,3c0,10 3,12 6,5c2,-7 12,-13 20,-13c9,0 13,6 9,15c-9,24 22,18 51,-11c26,-26 25,-46 -2,-24c-22,19 -31,4 -11,-19c16,-17 15,-19 -9,-35c-28,-19 -33,-36 -9,-36c44,0 113,125 85,153c-6,6 -11,19 -11,29c0,10 -4,18 -10,18c-5,0 -10,-13 -10,-30c0,-33 -2,-34 -28,-21c-57,29 -144,67 -187,82c-41,13 -50,20 -50,40c0,13 -2,24 -5,24c-10,1 -75,40 -82,50c-4,6 -8,22 -8,38c0,24 3,27 38,28c43,1 55,2 137,18c82,15 144,33 182,54c49,26 120,102 128,136c7,31 -11,77 -39,100c-23,20 -19,-3 4,-24c51,-46 1,-135 -110,-198c-74,-41 -235,-70 -405,-71c-161,-2 -187,6 -231,65c-20,27 -39,48 -42,45c-2,-3 7,-21 22,-40c14,-19 26,-38 26,-42c0,-16 -176,4 -223,25c-57,26 -167,131 -194,186c-19,37 -37,125 -26,125c2,0 25,-12 51,-27c26,-14 77,-41 114,-59c52,-26 70,-41 84,-69c12,-27 20,-33 29,-25c9,8 24,0 56,-30c23,-22 45,-38 47,-35c2,2 -6,20 -18,39c-26,44 -18,47 17,6c13,-17 33,-30 43,-30c10,0 20,-8 22,-18c3,-10 15,-18 26,-19c25,-2 26,0 11,30c-10,22 -10,22 7,2c12,-14 18,-16 21,-7c4,10 8,10 19,1c28,-23 23,-2 -12,49c-19,29 -37,52 -40,52c-4,0 -2,-6 3,-12c22,-29 21,-43 -3,-43c-18,0 -24,5 -24,23c0,15 -9,26 -26,33c-15,5 -29,7 -32,4c-3,-3 -2,-5 2,-5c4,0 1,-6 -6,-14c-9,-10 -17,-11 -26,-4c-7,6 -15,8 -19,5c-3,-4 -13,-1 -21,6c-13,9 -14,9 -8,0c14,-25 -22,-13 -38,12c-9,14 -20,24 -24,21c-5,-3 -14,-1 -21,3c-18,12 25,61 53,61c12,0 75,-21 141,-46c116,-45 123,-47 216,-45c61,2 106,-2 125,-11c43,-19 186,-107 212,-131c16,-15 22,-17 22,-6c-1,15 -45,48 -158,117c-40,24 -71,49 -69,56c3,8 48,10 153,9c113,-2 137,0 99,7c-27,5 -92,10 -145,11c-97,3 -150,18 -179,53c-8,9 -19,16 -26,16c-9,0 -83,43 -114,67c-34,25 258,-6 399,-44c30,-8 74,-21 98,-29c28,-11 47,-13 55,-6c7,5 37,12 68,16c86,9 240,60 304,99c203,125 252,165 358,289c123,145 115,308 -21,386c-85,50 -148,63 -292,61c-136,-2 -191,-8 -380,-45c-158,-31 -267,-64 -247,-76c9,-4 13,-16 10,-26c-3,-14 -21,-22 -69,-31c-35,-7 -64,-17 -64,-22c0,-13 25,-11 87,7c54,16 55,16 79,-7c13,-12 24,-26 24,-29c0,-12 -101,-50 -134,-50c-17,0 -45,4 -62,9c-28,8 -41,3 -115,-42c-46,-27 -131,-74 -189,-104l-105,-54l-105,6c-58,4 -135,7 -172,7c-113,-1 -95,18 32,34c96,12 261,45 312,63c152,53 186,71 173,91c-5,8 -14,6 -32,-6c-14,-9 -37,-20 -52,-24c-161,-50 -210,-62 -301,-75c-89,-13 -171,-28 -277,-51c-13,-2 -23,0 -23,6c0,5 11,10 24,10c14,0 28,5 31,10c4,6 12,10 18,9c7,-1 24,1 39,5c24,7 27,12 22,35c-4,14 -13,36 -20,48c-8,12 -14,29 -14,38c0,8 -9,15 -20,15c-26,0 -26,24 1,51c11,11 18,23 15,26c-3,3 -1,14 5,24c9,18 4,90 -17,257c-5,37 -3,52 5,52c7,0 11,-8 9,-17c-2,-17 105,-133 123,-133c3,0 12,-7 19,-15c7,-8 19,-15 26,-15c25,0 15,40 -18,76c-44,48 -65,59 -84,43c-13,-11 -14,-9 -10,12c5,21 0,27 -36,45c-29,14 -54,38 -77,73c-33,49 -54,65 -31,22c9,-17 8,-21 -4,-21c-20,0 -36,30 -42,78c-6,48 -30,123 -64,193c-23,49 -28,54 -38,40c-11,-14 -12,-14 -11,4c1,11 1,29 0,39c-1,18 -2,18 -13,3c-7,-9 -18,-13 -25,-9c-16,10 -28,62 -14,62c6,0 11,19 11,45c0,33 4,45 15,45c18,0 19,-9 5,-46c-6,-15 -8,-36 -4,-47c6,-19 7,-19 16,-3c5,9 7,24 4,32c-3,8 0,26 7,41c9,21 9,27 -1,31c-6,2 -12,13 -12,25c0,20 0,21 -16,1c-14,-17 -15,-17 -10,-1c4,12 2,17 -6,14c-8,-2 -13,-22 -13,-51c0,-26 -5,-50 -11,-54c-18,-12 -11,-127 9,-146c9,-10 17,-22 17,-27c0,-13 -24,-11 -38,3c-18,18 -15,-3 8,-61c20,-52 34,-148 22,-155c-4,-2 -26,-7 -49,-11c-37,-6 -42,-4 -48,16l-8,23l-18,-23l-19,-23l6,48c5,48 5,49 -11,24l-16,-25l5,35l6,35l-20,-24c-11,-13 -20,-33 -20,-45c0,-17 -2,-18 -10,-6c-5,8 -10,29 -10,46c0,19 -6,34 -15,38c-17,6 -20,-5 -4,-21c8,-8 8,-13 0,-17c-6,-4 -11,-16 -11,-26c0,-10 -5,-22 -11,-26c-9,-5 -10,6 -5,41c5,33 4,45 -3,40c-6,-3 -11,-31 -11,-61c0,-30 -4,-54 -9,-54c-10,0 -31,85 -31,122c0,12 -3,18 -7,14c-7,-6 -9,-19 -16,-89c-5,-40 -17,-63 -17,-31c0,10 -9,30 -20,44l-20,25l0,-29c0,-23 -3,-27 -11,-19c-9,9 -15,8 -25,-2c-8,-7 -14,-18 -14,-23c0,-11 -78,5 -97,20c-9,7 -5,29 18,89c16,44 29,84 29,89c0,5 -12,8 -27,7c-24,-2 -28,2 -28,26c1,15 -3,27 -7,27c-4,0 -8,10 -8,23c1,21 1,21 15,3c47,-62 52,96 9,287c-29,130 -27,152 11,145c28,-6 34,6 9,16c-30,11 -79,3 -131,-22zm-1598,-1025c9,-13 107,-67 120,-67c3,0 5,4 5,10c0,5 -21,19 -47,31l-48,22l45,9c55,10 119,1 127,-19c4,-11 8,-12 13,-2c6,9 27,8 97,-5c48,-9 97,-21 108,-26c11,-4 32,-11 48,-14c29,-7 67,-39 67,-57c0,-6 -9,-13 -20,-16c-11,-3 -20,-9 -20,-14c0,-5 -33,-7 -73,-4c-69,5 -137,27 -215,69c-18,9 -41,15 -50,13c-12,-3 -6,-9 20,-20c50,-23 56,-36 26,-62c-13,-11 -32,-35 -40,-52c-16,-32 -16,-32 13,-38c24,-6 29,-12 29,-37c0,-25 12,-43 62,-91l63,-60l-103,-32c-115,-37 -252,-96 -252,-109c0,-4 6,-6 13,-3c105,45 244,97 285,107c46,12 59,12 109,-4c71,-22 177,-71 190,-88c13,-17 25,-110 15,-124c-12,-19 -44,-31 -122,-47c-130,-28 -174,-33 -215,-25c-22,5 -53,10 -70,13c-43,5 -141,41 -184,67c-95,57 -332,242 -379,296c-66,76 -77,103 -77,187c0,94 13,121 76,160c64,41 139,55 264,50c77,-3 113,-9 120,-18zm4235,-3c77,-13 160,-72 186,-133c21,-49 18,-125 -7,-174c-48,-95 -196,-246 -308,-314c-166,-101 -244,-132 -398,-159c-73,-13 -90,-13 -148,1c-36,8 -77,23 -92,32c-14,10 -47,18 -72,19c-43,1 -225,30 -351,55c-30,6 -62,12 -70,13c-39,7 -115,32 -215,71c-60,24 -127,49 -147,56c-21,7 -40,19 -42,26c-7,18 -3,17 115,-23c57,-19 136,-41 174,-48c39,-8 111,-25 160,-39c112,-32 264,-67 288,-67c10,0 30,-6 45,-14l27,-14l0,87c0,62 -5,95 -18,118c-9,18 -17,38 -17,46c0,15 106,77 150,88c24,6 24,7 3,8c-15,1 -23,7 -23,19c0,19 137,83 180,82l24,0l-21,15c-33,23 -17,66 30,84c35,13 38,12 57,-10c37,-43 40,-54 24,-77c-8,-12 -25,-22 -37,-23c-12,0 -16,-3 -9,-6c6,-2 12,-17 12,-32c0,-20 -14,-39 -59,-79c-33,-28 -66,-52 -74,-52c-8,0 -20,-7 -27,-15c-18,-21 8,-20 39,1c29,21 41,15 151,-67c122,-91 151,-110 162,-107c10,4 -114,102 -161,128c-15,9 -45,30 -67,48l-39,32l42,38c28,25 46,50 52,77c6,22 20,46 31,53c26,16 25,28 -5,68c-14,18 -25,39 -25,46c0,8 43,34 97,59c53,24 106,52 118,61c12,9 37,21 56,26c34,9 145,7 209,-4zm-280,2c0,-3 -75,-42 -167,-87c-154,-75 -172,-82 -226,-81c-63,1 -97,20 -97,52c0,26 17,35 100,53c114,25 158,31 140,18c-22,-15 -12,-14 81,13c107,31 169,42 169,32zm-3662,-147c22,-7 34,-20 42,-45c6,-18 9,-38 5,-43c-7,-12 11,-22 85,-47c30,-10 58,-23 62,-28c10,-15 -3,-36 -22,-36c-11,0 -22,-5 -26,-11c-5,-8 2,-10 22,-6c37,7 164,-59 164,-85c0,-23 -30,-98 -39,-98c-4,0 -11,4 -16,9c-18,17 -149,79 -182,86c-18,3 -33,10 -33,14c0,5 -29,37 -65,73c-36,36 -65,73 -65,81c0,16 58,34 88,29c6,-2 12,2 12,9c0,8 -15,10 -47,7c-56,-6 -70,-3 -83,22c-8,14 -4,25 16,49c28,34 36,36 82,20zm468,-10c114,-40 251,-80 404,-120c85,-22 157,-43 160,-46c3,-3 -15,-3 -40,-1c-148,15 -324,61 -475,125c-44,18 -85,33 -91,33c-6,0 -17,7 -24,15c-17,20 -4,19 66,-6zm-296,-19c0,-11 76,-50 97,-50c25,0 13,-20 -24,-39c-37,-19 -37,-19 -103,6c-36,14 -66,25 -66,26c-1,1 -5,17 -9,35l-7,32l56,0c31,0 56,-4 56,-10zm425,-85c87,-35 179,-58 295,-75c41,-6 131,-23 200,-38l125,-27l-100,-6c-143,-7 -325,0 -355,16c-180,92 -394,228 -285,180c22,-10 76,-32 120,-50zm-136,11c20,-13 92,-56 161,-96c127,-74 143,-87 133,-103c-7,-12 -151,-3 -298,19c-89,13 -123,23 -177,53c-57,30 -68,40 -68,62c0,24 6,28 103,57c56,16 104,30 106,31c3,1 21,-10 40,-23zm2660,-44c25,-13 37,-27 39,-44c5,-38 -102,-102 -195,-117c-200,-31 -333,-32 -333,-3c0,5 33,24 72,43c91,43 235,126 244,141c10,16 130,2 173,-20zm-1939,-152c0,-5 -15,-11 -32,-15c-18,-4 -89,-19 -158,-35c-69,-15 -146,-31 -172,-34l-48,-6l0,34c0,69 -9,66 211,65c109,-1 199,-5 199,-9zm-685,-20c55,-6 134,-14 175,-18c68,-6 75,-9 78,-29c4,-27 -21,-39 -108,-54c-104,-19 -265,-60 -293,-75c-24,-14 -28,-14 -33,1c-10,25 2,96 25,148c16,37 25,47 38,43c10,-3 63,-10 118,-16zm2050,6c60,-1 95,-28 95,-71c0,-27 -4,-35 -18,-35c-35,0 -149,28 -222,55c-41,15 -101,32 -132,38c-106,20 -64,30 90,22c81,-5 165,-9 187,-9zm506,-60c20,-45 24,-101 10,-139l-10,-25l-83,23c-46,12 -119,30 -163,40c-44,10 -95,25 -113,34c-28,13 -33,20 -30,45l3,31l130,12c72,7 150,16 175,21c25,5 49,6 54,4c4,-2 17,-23 27,-46zm-1381,-42c0,-14 40,-51 40,-38c0,6 -4,14 -10,20c-5,5 -6,15 0,24c7,11 11,9 20,-12c9,-18 18,-24 31,-21c24,7 19,29 -5,25c-24,-4 -20,35 5,48c11,7 28,9 36,6c9,-4 22,-1 29,5c11,9 14,8 14,-4c0,-10 6,-14 15,-11c10,4 15,0 15,-14c0,-12 5,-24 12,-28c8,-5 9,3 5,30c-4,27 -3,36 6,33c7,-2 13,-13 15,-24c2,-16 11,-20 42,-20c22,0 40,4 40,10c0,5 7,7 15,4c8,-4 18,-1 22,6c5,8 9,4 13,-12c6,-26 51,-45 134,-56c28,-4 56,-10 61,-13c11,-7 18,-8 63,-10c24,-2 32,-6 32,-21c0,-11 5,-23 11,-27c8,-4 9,1 4,15c-6,21 -4,22 32,16c21,-3 88,-19 148,-35c61,-16 126,-32 146,-35c19,-3 60,-21 90,-39c30,-19 88,-55 129,-80c41,-24 81,-49 89,-53c9,-6 11,-14 6,-22c-6,-10 -32,-12 -109,-9c-94,5 -118,11 -221,53c-11,5 -22,9 -25,9c-17,5 -50,33 -50,43c0,7 -9,17 -21,24c-19,10 -20,8 -14,-10c8,-25 7,-25 -38,-6c-19,8 -38,22 -41,32c-6,13 -9,14 -15,4c-6,-10 -10,-9 -14,4c-4,9 -3,13 3,10c19,-11 10,19 -12,42c-15,16 -33,23 -60,23c-24,0 -37,-4 -33,-10c4,-6 11,-8 16,-5c5,3 6,-1 3,-9c-8,-20 -7,-20 -54,4c-26,13 -40,27 -40,40c0,11 -2,20 -4,20c-2,0 -12,3 -22,7c-14,5 -16,3 -11,-11c5,-12 3,-16 -5,-14c-7,3 -13,10 -13,15c0,6 -3,15 -7,19c-5,4 -8,0 -8,-9c0,-9 -4,-17 -10,-17c-5,0 -10,9 -10,20c0,23 -12,25 -39,8c-17,-10 -26,-6 -64,25c-51,42 -56,43 -83,22c-18,-15 -18,-16 5,-13c29,4 54,-28 32,-41c-11,-7 -10,-11 5,-20c17,-9 17,-10 2,-11c-22,0 -23,-16 -2,-28c17,-9 29,-92 13,-92c-5,0 -12,7 -15,15c-7,18 -54,20 -54,3c0,-6 7,-19 15,-28c9,-10 13,-25 9,-34c-7,-17 -24,-22 -24,-6c0,6 -4,10 -10,10c-5,0 -3,-14 4,-31c16,-38 9,-117 -12,-141c-21,-25 -32,-13 -32,36c0,27 -6,48 -15,56c-19,15 -19,9 0,-60c9,-34 11,-58 5,-64c-10,-10 -13,-5 -30,61c-15,58 -32,66 -25,11c6,-43 6,-43 -29,27c-23,45 -35,62 -36,48c0,-12 9,-39 19,-60c11,-21 22,-54 26,-73c7,-31 6,-33 -9,-21c-14,12 -16,11 -16,-9c0,-16 -4,-20 -15,-16c-11,4 -15,-2 -15,-20c0,-14 -7,-33 -16,-41c-14,-14 -15,-12 -8,23c3,21 3,36 -1,32c-4,-4 -14,0 -22,10c-13,15 -14,13 -10,-23c3,-30 -1,-47 -14,-64c-24,-29 -30,-24 -32,28c-1,23 -5,41 -9,41c-5,0 -8,-7 -8,-15c0,-8 -5,-15 -10,-15c-20,0 -23,32 -7,66c9,19 12,34 7,34c-5,0 -17,-22 -27,-49c-22,-63 -36,-55 -28,17c4,47 3,53 -6,35c-7,-13 -15,-23 -19,-23c-16,0 -32,61 -26,97l5,38l-14,-30c-8,-16 -14,-47 -15,-67c0,-43 -20,-53 -20,-10c-1,26 -1,26 -16,7c-14,-18 -14,-18 -9,10c3,17 7,55 8,85l2,55l-45,1c-25,1 -51,-3 -57,-9c-26,-20 -13,24 13,48l27,25l-32,0c-31,0 -32,1 -26,33c4,17 11,34 16,35c5,2 9,14 9,27c0,13 5,27 12,31c8,5 6,11 -7,20c-21,15 -98,8 -130,-12c-11,-6 -31,-15 -45,-19c-14,-4 -54,-20 -89,-37c-72,-32 -107,-39 -103,-20c1,6 -2,12 -7,12c-5,0 -11,-10 -13,-22c-2,-16 -10,-23 -26,-24c-13,-1 -28,-6 -35,-13c-19,-19 -46,-14 -40,9c3,11 9,20 13,20c4,0 10,6 13,14c4,10 0,12 -14,9c-24,-7 -34,-21 -34,-50c0,-13 -4,-22 -10,-22c-5,1 -9,6 -7,13c1,6 -6,0 -17,-14c-11,-14 -23,-22 -27,-18c-4,4 -2,13 3,20c6,7 14,24 18,38c7,22 6,23 -9,11c-9,-7 -16,-20 -16,-28c0,-62 -119,-110 -283,-115c-135,-4 -137,6 -12,73c50,26 99,59 110,72c20,24 41,31 140,42c28,3 61,10 75,14c111,38 336,78 450,80c52,2 98,4 101,7c4,2 10,0 14,-6c10,-16 25,-12 25,8c1,16 1,16 14,0c16,-22 26,-23 26,-4c0,23 -28,40 -44,27c-20,-17 -27,0 -10,23c13,18 15,18 49,-8l35,-27l0,23c1,22 1,22 27,-7l26,-30l-6,35l-7,35l21,-28c17,-22 24,-25 35,-16c8,6 14,18 14,26c0,20 20,5 20,-15c1,-20 27,-58 35,-50c3,3 -2,21 -10,41c-19,45 -18,73 0,32c8,-16 14,-35 15,-41zm-410,-113c0,-5 -28,-23 -62,-41c-75,-37 -95,-49 -120,-72c-10,-10 -23,-18 -28,-18c-6,0 -23,-9 -39,-21c-27,-20 -29,-20 -64,-3c-39,19 -50,44 -18,44c10,0 44,11 75,25c31,14 63,25 71,25c13,0 101,37 145,61c21,11 40,11 40,0zm191,-1412c7,-17 7,-40 0,-70c-6,-24 -6,-48 -2,-52c11,-11 21,81 16,146c-4,38 -2,45 4,27c5,-14 10,-20 11,-15c2,6 6,-15 10,-45c5,-30 11,-74 15,-97c5,-30 4,-43 -4,-43c-6,0 -12,-10 -12,-22c-1,-17 -3,-18 -6,-6c-3,13 -12,17 -34,14c-16,-2 -32,1 -35,6c-4,7 -9,6 -13,-1c-4,-6 -10,-4 -17,7c-7,12 -5,48 7,117c16,95 17,97 19,45c2,-61 5,-58 16,15c5,34 9,42 11,25c2,-14 8,-37 14,-51z"/>
   <path id="svg_3" d="m2223.333333,3459c0,-5 -24,-21 -52,-34c-106,-51 -195,-117 -227,-169c-27,-43 -26,-56 3,-56c16,0 46,22 93,68c56,55 136,112 158,112c3,0 5,-10 5,-23c0,-14 6,-24 15,-24c8,0 15,4 15,9c0,4 5,8 10,8c11,0 13,-33 4,-79c-8,-37 -34,-42 -34,-7c0,14 -4,28 -10,31c-16,10 -12,-42 5,-59c25,-25 19,-47 -11,-42c-20,4 -27,0 -31,-14c-7,-25 -23,-16 -23,12c0,11 8,22 20,25c16,4 20,14 20,52c-1,25 1,55 2,65c2,10 -3,21 -9,23c-8,3 -13,-4 -13,-15c0,-11 -5,-22 -12,-24c-34,-12 -17,-298 18,-298c20,0 39,-41 24,-50c-13,-8 13,-40 33,-40c6,0 3,6 -5,13c-21,15 -13,68 8,60c8,-3 14,1 14,11c0,19 17,22 23,4c2,-7 2,-3 0,10c-2,12 0,22 4,22c18,0 46,79 39,111c-6,32 12,110 40,177c21,49 19,65 -13,121c-2,2 -8,-1 -15,-6c-25,-20 -58,-25 -58,-10c0,8 -9,17 -20,20c-11,3 -20,1 -20,-4z"/>
  </g>
  <path d="m222,301c0.70984,-0.35718 1.44176,-0.58868 2.23833,-1.29999c0.68527,-0.61191 0.91437,-1.61496 1.64835,-1.69867c0.93262,-0.10635 1.94666,-0.00134 2.70267,-0.00134c0.91066,0 1.81065,0 2.71066,0c0.89999,0 1.8,0 2.7,0c0.8,0 1.7,0 2.60001,0c0.89999,0 1.79999,0 2.7,0c0.89999,0 1.80017,0 2.58533,0c0.94,0 1.948,0 2.70401,0c0.91066,0 1.81065,0 2.71066,0c0.89999,0 1.8,0 2.7,0c0.8,0 1.77011,-0.02051 2.65266,-0.35266c0.70622,-0.26581 1.58888,-0.61874 2.54733,-0.64734c0.89961,-0.02682 1.8,0 2.59999,0c0.836,0 1.85269,0 2.54733,0c1.02734,0 1.974,0 2.82733,0c0.94,0 1.82535,0 2.58252,0c0.89551,0 1.75882,0 2.72198,0c0.93152,0 1.84216,0 2.6955,0c0.94,0 1.82535,0 2.62534,0c0.90002,0 1.80002,0 2.70001,0c0.89999,0 1.79999,0 2.70001,0c0.89999,0 1.79999,0 2.59998,0l0.90002,0" id="svg_4" stroke-width="5" stroke="#000000" fill="none"/>
  <path d="m325,298c-0.33334,-0.83334 -1.18698,-0.94467 -2.116,-1.00134c-0.77115,-0.04703 -1.69171,-0.47003 -2.39999,-0.71466c-0.94376,-0.32596 -1.91476,-0.22156 -2.80533,-0.50534c-0.69904,-0.22275 -1.65021,-0.71368 -2.37418,-0.77417c-0.90137,-0.07532 -1.8045,-0.00449 -2.74716,-0.00449c-0.69867,0 -1.89734,0 -2.69067,0c-0.42917,0 -1.32751,0 -2.70001,0c-0.88,0 -1.72,0 -2.51999,0c-0.76001,0 -1.82501,0 -2.79999,0c-0.60001,0 -1.68002,0 -2.60001,0c-0.76001,0 -1.74667,0 -2.73068,0c-0.69064,0 -1.75882,0 -2.616,0c-0.89999,0 -1.65717,0 -2.72534,0c-0.69064,0 -1.65381,0 -2.57465,0l-0.89999,0l-0.90002,0" id="svg_5" stroke-width="5" stroke="#000000" fill="#ffffaa"/>
  <polygon fill="#ffffaa" id="svg_6"/>
  <polygon fill="#000000" id="svg_7"/>
  <path fill="#eaba8c" stroke-width="5" stroke-dasharray="null" stroke-linejoin="null" stroke-linecap="null" d="m246,226c-0.666667,2 0.666667,13.333333 0.666667,13.333333c0,0 -0.666667,-13.333333 -0.666667,-13.333333z" id="svg_13"/>
 </g>
</svg>