<svg width="550" height="462" xmlns="http://www.w3.org/2000/svg" xmlns:svg="http://www.w3.org/2000/svg" preserveAspectRatio="xMidYMid meet">
 <!-- Created with SVG-edit - http://svg-edit.googlecode.com/ -->

 <g>
  <title>Layer 1</title>
  <polygon stroke-width="6" stroke="#000000" points="52,63 52,63 52,63 52,63 52,63 52,63 " strokeWidth="6" strokecolor="#000000" fill="#000000" edge="0" orient="x" sides="5" shape="regularPoly" id="svg_9" cy="63" cx="52"/>
  <polygon strokeWidth="6" strokecolor="#000000" fill="#000000" edge="0" orient="x" sides="5" shape="regularPoly" id="svg_10" cy="70" cx="35"/>
  <polygon stroke-width="6" points="36,65 36,65 36,65 36,65 36,65 36,65 " strokeWidth="6" strokecolor="none" fill="#000000" edge="0" orient="x" sides="5" shape="regularPoly" id="svg_11" cy="65" cx="36"/>
  <polygon stroke-width="8" stroke="#bbdaf57a" points="251,210 251,210 251,210 251,210 251,210 251,210 " strokeWidth="8" strokecolor="#bbdaf57a" fill="#000000" edge="0" orient="x" sides="5" shape="regularPoly" id="svg_19" cy="210" cx="251"/>
  <polygon strokeWidth="8" strokecolor="#bbdaf57a" fill="#000000" edge="0" orient="x" sides="5" shape="regularPoly" id="svg_20" cy="237" cx="247"/>
  <polygon stroke-width="6" stroke="#bbdaf57a" points="502,177 502,177 502,177 502,177 502,177 502,177 " strokeWidth="6" strokecolor="#bbdaf57a" fill="#000000" edge="0" orient="x" sides="5" shape="regularPoly" id="svg_27" cy="177" cx="502"/>
  <polygon stroke-width="6" stroke="#bbdaf57a" points="420,217 420,217 420,217 420,217 420,217 420,217 " strokeWidth="6" strokecolor="#bbdaf57a" fill="#000000" edge="0" orient="x" sides="5" shape="regularPoly" id="svg_28" cy="217" cx="420"/>
  <polygon strokeWidth="6" strokecolor="#bbdaf57a" fill="#000000" edge="0" orient="x" sides="5" shape="regularPoly" id="svg_29" cy="240" cx="420"/>
  <polygon stroke-width="6" points="418.56710053890134,249 418.1752437040397,249.53934466291662 417.5412060265096,249.33333333333334 417.5412060265096,248.66666666666666 418.1752437040397,248.46065533708338 418.56710053890134,249 " strokeWidth="6" strokecolor="none" fill="#000000" edge="0.66667" orient="x" sides="5" shape="regularPoly" id="svg_30" cy="249" cx="418"/>
  <polygon stroke-width="7" stroke="#bbdaf57a" points="119,226 119,226 119,226 119,226 119,226 119,226 " strokeWidth="7" strokecolor="#bbdaf57a" fill="#000000" edge="0" orient="x" sides="5" shape="regularPoly" id="svg_34" cy="226" cx="119"/>
  <polygon stroke-width="7" stroke="#bbdaf57a" points="139,200 139,200 139,200 139,200 139,200 139,200 " strokeWidth="7" strokecolor="#bbdaf57a" fill="#000000" edge="0" orient="x" sides="5" shape="regularPoly" id="svg_35" cy="200" cx="139"/>
  <polygon strokeWidth="7" strokecolor="#bbdaf57a" fill="#000000" edge="0" orient="x" sides="5" shape="regularPoly" id="svg_36" cy="362" cx="133"/>
  <polygon opacity="0.9" stroke-width="9" stroke="#bbdaf57a" points="213,307 213,307 213,307 213,307 213,307 213,307 " strokeWidth="7" strokecolor="#bbdaf57a" fill="#000000" edge="0" orient="x" sides="5" shape="regularPoly" id="svg_41" cy="307" cx="213"/>
  <polygon opacity="0.9" stroke-width="9" stroke="#bbdaf57a" points="287,86 287,86 287,86 287,86 287,86 287,86 " strokeWidth="9" strokecolor="#bbdaf57a" fill="#000000" edge="0" orient="x" sides="5" shape="regularPoly" id="svg_44" cy="86" cx="287"/>
  <polygon opacity="0.9" strokeWidth="7" strokecolor="none" fill="#000000" edge="0" orient="x" sides="5" shape="regularPoly" id="svg_51" cy="228" cx="519"/>
  <polygon opacity="0.9" stroke-width="7" points="510,259 510,259 510,259 510,259 510,259 510,259 " strokeWidth="7" strokecolor="none" fill="#000000" edge="0" orient="x" sides="5" shape="regularPoly" id="svg_52" cy="259" cx="510"/>
  <path id="svg_56" d="m100.5,236.64284l14.78571,-29.57142l39.42857,0l14.78571,29.57142l-14.78571,29.57142l-39.42857,0l-14.78571,-29.57142z" opacity="0.9" fill-opacity="0" stroke-linecap="null" stroke-linejoin="null" stroke-dasharray="null" stroke-width="7" stroke="#bbdaf57a" fill="#000000"/>
  <path id="svg_57" d="m157.50001,265.99999l14.78571,-29.57142l39.42857,0l14.78571,29.57142l-14.78571,29.57143l-39.42857,0l-14.78571,-29.57143z" opacity="0.9" fill-opacity="0" stroke-linecap="null" stroke-linejoin="null" stroke-dasharray="null" stroke-width="7" stroke="#bbdaf57a" fill="#000000"/>
  <path id="svg_58" d="m158.5,201.99999l14.78571,-29.57142l39.42857,0l14.78571,29.57142l-14.78571,29.57143l-39.42857,0l-14.78571,-29.57143z" opacity="0.9" fill-opacity="0" stroke-linecap="null" stroke-linejoin="null" stroke-dasharray="null" stroke-width="7" stroke="#bbdaf57a" fill="#000000"/>
  <path id="svg_59" d="m214.5,233.99999l14.78571,-29.57142l39.42857,0l14.78571,29.57142l-14.78571,29.57143l-39.42857,0l-14.78571,-29.57143z" opacity="0.9" fill-opacity="0" stroke-linecap="null" stroke-linejoin="null" stroke-dasharray="null" stroke-width="7" stroke="#bbdaf57a" fill="#000000"/>
  <path id="svg_60" d="m269.5,203.99999l14.78571,-29.57142l39.42857,0l14.78571,29.57142l-14.78571,29.57143l-39.42857,0l-14.78571,-29.57143z" opacity="0.9" fill-opacity="0" stroke-linecap="null" stroke-linejoin="null" stroke-dasharray="null" stroke-width="7" stroke="#bbdaf57a" fill="#000000"/>
  <path id="svg_61" d="m215.5,169.99999l14.78571,-29.57142l39.42857,0l14.78571,29.57142l-14.78571,29.57143l-39.42857,0l-14.78571,-29.57143z" opacity="0.9" fill-opacity="0" stroke-linecap="null" stroke-linejoin="null" stroke-dasharray="null" stroke-width="7" stroke="#bbdaf57a" fill="#000000"/>
  <path id="svg_62" d="m275.5,138.99999l14.78571,-29.57142l39.42857,0l14.78571,29.57142l-14.78571,29.57143l-39.42857,0l-14.78571,-29.57143z" opacity="0.9" fill-opacity="0" stroke-linecap="null" stroke-linejoin="null" stroke-dasharray="null" stroke-width="7" stroke="#bbdaf57a" fill="#000000"/>
  <path id="svg_63" d="m326.5,171.99999l14.78571,-29.57142l39.42857,0l14.78571,29.57142l-14.78571,29.57143l-39.42857,0l-14.78571,-29.57143z" opacity="0.9" fill-opacity="0" stroke-linecap="null" stroke-linejoin="null" stroke-dasharray="null" stroke-width="7" stroke="#bbdaf57a" fill="#000000"/>
  <path id="svg_64" d="m329.5,231.99999l14.78571,-29.57142l39.42857,0l14.78571,29.57142l-14.78571,29.57143l-39.42857,0l-14.78571,-29.57143z" opacity="0.9" fill-opacity="0" stroke-linecap="null" stroke-linejoin="null" stroke-dasharray="null" stroke-width="7" stroke="#bbdaf57a" fill="#000000"/>
  <path id="svg_65" d="m273.5,263.99999l14.78571,-29.57142l39.42857,0l14.78571,29.57142l-14.78571,29.57143l-39.42857,0l-14.78571,-29.57143z" opacity="0.9" fill-opacity="0" stroke-linecap="null" stroke-linejoin="null" stroke-dasharray="null" stroke-width="7" stroke="#bbdaf57a" fill="#000000"/>
  <path id="svg_66" d="m215.5,292.99999l14.78571,-29.57142l39.42857,0l14.78571,29.57142l-14.78571,29.57143l-39.42857,0l-14.78571,-29.57143z" opacity="0.9" fill-opacity="0" stroke-linecap="null" stroke-linejoin="null" stroke-dasharray="null" stroke-width="7" stroke="#bbdaf57a" fill="#000000"/>
  <path id="svg_67" d="m160.5,327.99999l14.78571,-29.57142l39.42857,0l14.78571,29.57142l-14.78571,29.57143l-39.42857,0l-14.78571,-29.57143z" opacity="0.9" fill-opacity="0" stroke-linecap="null" stroke-linejoin="null" stroke-dasharray="null" stroke-width="7" stroke="#bbdaf57a" fill="#000000"/>
  <path id="svg_68" d="m216.5,352.99999l14.78571,-29.57142l39.42857,0l14.78571,29.57142l-14.78571,29.57143l-39.42857,0l-14.78571,-29.57143z" opacity="0.9" fill-opacity="0" stroke-linecap="null" stroke-linejoin="null" stroke-dasharray="null" stroke-width="7" stroke="#bbdaf57a" fill="#000000"/>
  <path id="svg_69" d="m271.5,323.99999l14.78571,-29.57142l39.42857,0l14.78571,29.57142l-14.78571,29.57143l-39.42857,0l-14.78571,-29.57143z" opacity="0.9" fill-opacity="0" stroke-linecap="null" stroke-linejoin="null" stroke-dasharray="null" stroke-width="7" stroke="#bbdaf57a" fill="#000000"/>
  <path id="svg_70" d="m330.5,293.99999l14.78571,-29.57142l39.42857,0l14.78571,29.57142l-14.78571,29.57143l-39.42857,0l-14.78571,-29.57143z" opacity="0.9" fill-opacity="0" stroke-linecap="null" stroke-linejoin="null" stroke-dasharray="null" stroke-width="7" stroke="#bbdaf57a" fill="#000000"/>
  <path id="svg_71" d="m388.5,261.99999l14.78571,-29.57142l39.42857,0l14.78571,29.57142l-14.78571,29.57143l-39.42857,0l-14.78571,-29.57143z" opacity="0.9" fill-opacity="0" stroke-linecap="null" stroke-linejoin="null" stroke-dasharray="null" stroke-width="7" stroke="#bbdaf57a" fill="#000000"/>
  <path id="svg_72" d="m382.5,198.99999l14.78571,-29.57142l39.42857,0l14.78571,29.57142l-14.78571,29.57143l-39.42857,0l-14.78571,-29.57143z" opacity="0.9" fill-opacity="0" stroke-linecap="null" stroke-linejoin="null" stroke-dasharray="null" stroke-width="7" stroke="#bbdaf57a" fill="#000000"/>
  <path id="svg_73" d="m441.5,225.99999l14.78571,-29.57142l39.42857,0l14.78571,29.57142l-14.78571,29.57143l-39.42857,0l-14.78571,-29.57143z" opacity="0.9" fill-opacity="0" stroke-linecap="null" stroke-linejoin="null" stroke-dasharray="null" stroke-width="7" stroke="#bbdaf57a" fill="#000000"/>
  <path id="svg_74" d="m438.5,163.99999l14.78571,-29.57142l39.42857,0l14.78571,29.57142l-14.78571,29.57143l-39.42857,0l-14.78571,-29.57143z" opacity="0.9" fill-opacity="0" stroke-linecap="null" stroke-linejoin="null" stroke-dasharray="null" stroke-width="7" stroke="#bbdaf57a" fill="#000000"/>
  <path id="svg_75" d="m381.5,134.99999l14.78571,-29.57142l39.42857,0l14.78571,29.57142l-14.78571,29.57143l-39.42857,0l-14.78571,-29.57143z" opacity="0.9" fill-opacity="0" stroke-linecap="null" stroke-linejoin="null" stroke-dasharray="null" stroke-width="7" stroke="#bbdaf57a" fill="#000000"/>
  <path id="svg_76" d="m330.5,106.99999l14.78571,-29.57142l39.42857,0l14.78571,29.57142l-14.78571,29.57143l-39.42857,0l-14.78571,-29.57143z" opacity="0.9" fill-opacity="0" stroke-linecap="null" stroke-linejoin="null" stroke-dasharray="null" stroke-width="7" stroke="#bbdaf57a" fill="#000000"/>
  <path id="svg_77" d="m436.5,100.99999l14.78571,-29.57142l39.42857,0l14.78571,29.57142l-14.78571,29.57143l-39.42857,0l-14.78571,-29.57143z" opacity="0.9" fill-opacity="0" stroke-linecap="null" stroke-linejoin="null" stroke-dasharray="null" stroke-width="7" stroke="#bbdaf57a" fill="#000000"/>
  <path id="svg_78" d="m494.5,130.99999l14.78571,-29.57142l39.42857,0l14.78571,29.57142l-14.78571,29.57143l-39.42857,0l-14.78571,-29.57143z" opacity="0.9" fill-opacity="0" stroke-linecap="null" stroke-linejoin="null" stroke-dasharray="null" stroke-width="7" stroke="#bbdaf57a" fill="#000000"/>
  <path id="svg_79" d="m494.5,68.99999l14.78571,-29.57142l39.42857,0l14.78571,29.57142l-14.78571,29.57143l-39.42857,0l-14.78571,-29.57143z" opacity="0.9" fill-opacity="0" stroke-linecap="null" stroke-linejoin="null" stroke-dasharray="null" stroke-width="7" stroke="#bbdaf57a" fill="#000000"/>
  <path id="svg_80" d="m437.5,37.99999l14.78571,-29.57142l39.42857,0l14.78571,29.57142l-14.78571,29.57143l-39.42857,0l-14.78571,-29.57143z" opacity="0.9" fill-opacity="0" stroke-linecap="null" stroke-linejoin="null" stroke-dasharray="null" stroke-width="7" stroke="#bbdaf57a" fill="#000000"/>
  <path id="svg_81" d="m382.5,72.99999l14.78571,-29.57142l39.42857,0l14.78571,29.57142l-14.78571,29.57143l-39.42857,0l-14.78571,-29.57143z" opacity="0.9" fill-opacity="0" stroke-linecap="null" stroke-linejoin="null" stroke-dasharray="null" stroke-width="7" stroke="#bbdaf57a" fill="#000000"/>
  <path id="svg_82" d="m497.5,188.99999l14.78571,-29.57142l39.42857,0l14.78571,29.57142l-14.78571,29.57143l-39.42857,0l-14.78571,-29.57143z" opacity="0.9" fill-opacity="0" stroke-linecap="null" stroke-linejoin="null" stroke-dasharray="null" stroke-width="7" stroke="#bbdaf57a" fill="#000000"/>
  <path id="svg_83" d="m447.5,288.99999l14.78571,-29.57142l39.42857,0l14.78571,29.57142l-14.78571,29.57143l-39.42857,0l-14.78571,-29.57143z" opacity="0.9" fill-opacity="0" stroke-linecap="null" stroke-linejoin="null" stroke-dasharray="null" stroke-width="7" stroke="#bbdaf57a" fill="#000000"/>
  <path id="svg_84" d="m497.5,254.99999l14.78571,-29.57142l39.42857,0l14.78571,29.57142l-14.78571,29.57143l-39.42857,0l-14.78571,-29.57143z" opacity="0.9" fill-opacity="0" stroke-linecap="null" stroke-linejoin="null" stroke-dasharray="null" stroke-width="7" stroke="#bbdaf57a" fill="#000000"/>
  <path id="svg_85" d="m390.5,320.99999l14.78571,-29.57142l39.42857,0l14.78571,29.57142l-14.78571,29.57143l-39.42857,0l-14.78571,-29.57143z" opacity="0.9" fill-opacity="0" stroke-linecap="null" stroke-linejoin="null" stroke-dasharray="null" stroke-width="7" stroke="#bbdaf57a" fill="#000000"/>
  <path id="svg_86" d="m331.5,353.99999l14.78571,-29.57142l39.42857,0l14.78571,29.57142l-14.78571,29.57143l-39.42857,0l-14.78571,-29.57143z" opacity="0.9" fill-opacity="0" stroke-linecap="null" stroke-linejoin="null" stroke-dasharray="null" stroke-width="7" stroke="#bbdaf57a" fill="#000000"/>
  <path id="svg_87" d="m390.5,382.99999l14.78571,-29.57142l39.42857,0l14.78571,29.57142l-14.78571,29.57143l-39.42857,0l-14.78571,-29.57143z" opacity="0.9" fill-opacity="0" stroke-linecap="null" stroke-linejoin="null" stroke-dasharray="null" stroke-width="7" stroke="#bbdaf57a" fill="#000000"/>
  <path id="svg_88" d="m448.5,350.99999l14.78571,-29.57142l39.42857,0l14.78571,29.57142l-14.78571,29.57143l-39.42857,0l-14.78571,-29.57143z" opacity="0.9" fill-opacity="0" stroke-linecap="null" stroke-linejoin="null" stroke-dasharray="null" stroke-width="7" stroke="#bbdaf57a" fill="#000000"/>
  <path id="svg_89" d="m503.5,318.99999l14.78571,-29.57142l39.42857,0l14.78571,29.57142l-14.78571,29.57143l-39.42857,0l-14.78571,-29.57143z" opacity="0.9" fill-opacity="0" stroke-linecap="null" stroke-linejoin="null" stroke-dasharray="null" stroke-width="7" stroke="#bbdaf57a" fill="#000000"/>
  <path id="svg_90" d="m504.5,381.99999l14.78571,-29.57142l39.42857,0l14.78571,29.57142l-14.78571,29.57143l-39.42857,0l-14.78571,-29.57143z" opacity="0.9" fill-opacity="0" stroke-linecap="null" stroke-linejoin="null" stroke-dasharray="null" stroke-width="7" stroke="#bbdaf57a" fill="#000000"/>
  <path id="svg_91" d="m447.5,412.99999l14.78571,-29.57142l39.42857,0l14.78571,29.57142l-14.78571,29.57143l-39.42857,0l-14.78571,-29.57143z" opacity="0.9" fill-opacity="0" stroke-linecap="null" stroke-linejoin="null" stroke-dasharray="null" stroke-width="7" stroke="#bbdaf57a" fill="#000000"/>
  <path id="svg_92" d="m503.5,439.99999l14.78571,-29.57142l39.42857,0l14.78571,29.57142l-14.78571,29.57143l-39.42857,0l-14.78571,-29.57143z" opacity="0.9" fill-opacity="0" stroke-linecap="null" stroke-linejoin="null" stroke-dasharray="null" stroke-width="7" stroke="#bbdaf57a" fill="#000000"/>
  <path id="svg_93" d="m377.5,11.99999l14.78571,-29.57142l39.42857,0l14.78571,29.57142l-14.78571,29.57143l-39.42857,0l-14.78571,-29.57143z" opacity="0.9" fill-opacity="0" stroke-linecap="null" stroke-linejoin="null" stroke-dasharray="null" stroke-width="7" stroke="#bbdaf57a" fill="#000000"/>
  <path id="svg_94" d="m99.5,299.99999l14.78571,-29.57142l39.42857,0l14.78571,29.57142l-14.78571,29.57143l-39.42857,0l-14.78571,-29.57143z" opacity="0.9" fill-opacity="0" stroke-linecap="null" stroke-linejoin="null" stroke-dasharray="null" stroke-width="7" stroke="#bbdaf57a" fill="#000000"/>
  <path id="svg_95" d="m42.50001,267.99999l14.78571,-29.57142l39.42857,0l14.78571,29.57142l-14.78571,29.57143l-39.42857,0l-14.78571,-29.57143z" opacity="0.9" fill-opacity="0" stroke-linecap="null" stroke-linejoin="null" stroke-dasharray="null" stroke-width="7" stroke="#bbdaf57a" fill="#000000"/>
  <path id="svg_96" d="m-16.49999,300.99999l14.78571,-29.57142l39.42857,0l14.78571,29.57142l-14.78571,29.57143l-39.42857,0l-14.78571,-29.57143z" opacity="0.9" fill-opacity="0" stroke-linecap="null" stroke-linejoin="null" stroke-dasharray="null" stroke-width="7" stroke="#bbdaf57a" fill="#000000"/>
  <path id="svg_97" d="m39.50001,331.99999l14.78571,-29.57142l39.42857,0l14.78571,29.57142l-14.78571,29.57143l-39.42857,0l-14.78571,-29.57143z" opacity="0.9" fill-opacity="0" stroke-linecap="null" stroke-linejoin="null" stroke-dasharray="null" stroke-width="7" stroke="#bbdaf57a" fill="#000000"/>
  <path id="svg_98" d="m39.50001,394.99999l14.78571,-29.57142l39.42857,0l14.78571,29.57142l-14.78571,29.57143l-39.42857,0l-14.78571,-29.57143z" opacity="0.9" fill-opacity="0" stroke-linecap="null" stroke-linejoin="null" stroke-dasharray="null" stroke-width="7" stroke="#bbdaf57a" fill="#000000"/>
  <path id="svg_99" d="m38.50001,453.99999l14.78571,-29.57142l39.42857,0l14.78571,29.57142l-14.78571,29.57143l-39.42857,0l-14.78571,-29.57143z" opacity="0.9" fill-opacity="0" stroke-linecap="null" stroke-linejoin="null" stroke-dasharray="null" stroke-width="7" stroke="#bbdaf57a" fill="#000000"/>
  <path id="svg_100" d="m-15.49999,361.99999l14.78571,-29.57142l39.42857,0l14.78571,29.57142l-14.78571,29.57143l-39.42857,0l-14.78571,-29.57143z" opacity="0.9" fill-opacity="0" stroke-linecap="null" stroke-linejoin="null" stroke-dasharray="null" stroke-width="7" stroke="#bbdaf57a" fill="#000000"/>
  <path id="svg_101" d="m-17.5,425.99999l14.78571,-29.57142l39.42857,0l14.78571,29.57142l-14.78571,29.57143l-39.42857,0l-14.78571,-29.57143z" opacity="0.9" fill-opacity="0" stroke-linecap="null" stroke-linejoin="null" stroke-dasharray="null" stroke-width="7" stroke="#bbdaf57a" fill="#000000"/>
 </g>
</svg>